<?xml version="1.0" encoding="utf-8"?>
<!-- Generator: Adobe Illustrator 16.0.0, SVG Export Plug-In . SVG Version: 6.00 Build 0)  -->
<!DOCTYPE svg PUBLIC "-//W3C//DTD SVG 1.1//EN" "http://www.w3.org/Graphics/SVG/1.1/DTD/svg11.dtd">
<svg version="1.1" xmlns="http://www.w3.org/2000/svg" xmlns:xlink="http://www.w3.org/1999/xlink" x="0px" y="0px" width="480px"
	 height="96px" viewBox="0 0 480 96" enable-background="new 0 0 480 96" xml:space="preserve">
<g id="Layer_1">
</g>
<g id="Layer_2">
	<path fill="#FFFFFF" d="M51.7,39.729v-4.134c0-0.622,0.029-1.1,0.085-1.442c0.059-0.338,0.188-0.674,0.394-1.005
		c0.207-0.33,0.534-0.553,0.989-0.684c0.457-0.125,1.066-0.189,1.824-0.189h4.129V24h-6.61c-3.824,0-6.572,0.907-8.24,2.719
		c-1.667,1.819-2.504,4.494-2.504,8.029v4.978h-4.951V48h4.95v24H51.7V48h6.609l0.875-8.271H51.7z"/>
	<path fill="#FFFFFF" d="M168,33.143c-1.89,0.811-3.779,1.316-5.664,1.523c2.129-1.282,3.573-3.089,4.325-5.422
		c-1.957,1.153-4.032,1.948-6.249,2.377c-1.947-2.072-4.343-3.113-7.188-3.113c-2.725,0-5.039,0.959-6.965,2.876
		c-1.911,1.921-2.874,4.241-2.874,6.958c0,0.734,0.079,1.484,0.242,2.255c-4.017-0.205-7.784-1.213-11.314-3.03
		c-3.52-1.816-6.511-4.24-8.964-7.263c-0.894,1.522-1.344,3.179-1.344,4.964c0,1.688,0.395,3.247,1.189,4.689
		c0.793,1.442,1.852,2.607,3.203,3.501c-1.587-0.06-3.068-0.477-4.451-1.248v0.122c0,2.371,0.748,4.457,2.234,6.258
		c1.499,1.793,3.375,2.927,5.657,3.395c-0.855,0.217-1.722,0.335-2.591,0.335c-0.566,0-1.193-0.05-1.856-0.156
		c0.629,1.976,1.786,3.591,3.473,4.856c1.691,1.275,3.592,1.924,5.725,1.971c-3.575,2.796-7.645,4.2-12.212,4.2
		c-0.875,0-1.667-0.036-2.375-0.129c4.566,2.953,9.603,4.43,15.1,4.43c3.5,0,6.776-0.553,9.845-1.659
		c3.064-1.106,5.684-2.589,7.852-4.448c2.175-1.856,4.046-3.986,5.623-6.405c1.573-2.423,2.746-4.945,3.517-7.568
		c0.772-2.637,1.161-5.264,1.161-7.902c0-0.573-0.014-0.997-0.034-1.286C164.997,36.822,166.643,35.128,168,33.143z"/>
	<g>
		<path fill="#FFFFFF" d="M243.614,54.564c-0.515-0.668-1.073-1.314-1.688-1.911c-0.613-0.576-1.226-1.102-1.846-1.598
			c-0.614-0.473-1.176-0.941-1.691-1.373c-0.501-0.454-0.919-0.92-1.241-1.397c-0.311-0.474-0.473-0.966-0.473-1.461
			c0-0.697,0.227-1.35,0.66-1.957c0.443-0.596,0.98-1.184,1.615-1.76c0.634-0.564,1.267-1.179,1.901-1.856
			c0.635-0.677,1.175-1.565,1.615-2.668c0.444-1.104,0.67-2.368,0.67-3.795c0-1.689-0.375-3.311-1.125-4.875
			c-0.76-1.552-1.816-2.768-3.177-3.633h3.891l3.908-2.28h-12.607c-1.785,0-3.587,0.19-5.393,0.582
			c-2.673,0.593-4.923,1.952-6.75,4.08c-1.827,2.128-2.739,4.53-2.739,7.223c0,2.853,1.025,5.219,3.072,7.1
			c2.042,1.88,4.501,2.821,7.366,2.821c0.581,0,1.257-0.05,2.025-0.145c-0.042,0.157-0.11,0.366-0.203,0.625
			c-0.096,0.258-0.172,0.468-0.234,0.616c-0.052,0.157-0.098,0.345-0.143,0.563c-0.041,0.227-0.064,0.448-0.064,0.68
			c0,1.266,0.625,2.707,1.85,4.303c-1.458,0.042-2.906,0.156-4.32,0.384c-1.427,0.225-2.922,0.562-4.473,1.036
			c-1.563,0.467-2.954,1.158-4.188,2.052c-1.225,0.896-2.146,1.964-2.77,3.188c-0.708,1.418-1.061,2.725-1.061,3.896
			c0,1.297,0.285,2.445,0.867,3.508c0.572,1.042,1.314,1.891,2.223,2.568c0.897,0.66,1.945,1.223,3.125,1.658
			c1.178,0.46,2.349,0.785,3.517,0.976c1.167,0.19,2.315,0.284,3.446,0.284c5.156,0,9.191-1.261,12.116-3.785
			c2.695-2.344,4.037-5.037,4.037-8.122c0-1.111-0.152-2.119-0.476-3.083C244.545,56.064,244.126,55.255,243.614,54.564z
			 M232.498,44.083c-0.98,0-1.917-0.251-2.805-0.75c-0.876-0.506-1.636-1.151-2.249-1.948c-0.613-0.798-1.152-1.702-1.617-2.705
			c-0.454-0.994-0.8-1.997-1.018-2.991c-0.226-1.003-0.331-1.959-0.331-2.856c0-1.849,0.483-3.438,1.465-4.76
			c0.983-1.332,2.366-1.988,4.161-1.988c1.27,0,2.416,0.394,3.446,1.175c1.033,0.791,1.834,1.786,2.418,3.001
			c0.588,1.215,1.037,2.463,1.359,3.767c0.311,1.294,0.471,2.52,0.471,3.682c0,1.921-0.419,3.468-1.25,4.625
			C235.713,43.501,234.356,44.083,232.498,44.083z M240.471,65.732c-0.534,0.92-1.245,1.624-2.156,2.138
			c-0.897,0.515-1.871,0.888-2.891,1.128c-1.031,0.239-2.121,0.344-3.25,0.344c-1.226,0-2.456-0.145-3.661-0.427
			c-1.212-0.288-2.368-0.72-3.484-1.316c-1.104-0.575-1.996-1.399-2.68-2.43c-0.683-1.029-1.025-2.178-1.025-3.491
			c0-1.158,0.258-2.188,0.786-3.089c0.518-0.896,1.177-1.632,1.992-2.157c0.803-0.548,1.743-0.982,2.821-1.344
			c1.075-0.338,2.114-0.578,3.117-0.713c1.003-0.137,2.017-0.195,3.065-0.195c0.634,0,1.109,0.012,1.437,0.053
			c0.116,0.061,0.405,0.277,0.884,0.609c0.469,0.322,0.783,0.551,0.943,0.656c0.165,0.103,0.465,0.334,0.894,0.656
			c0.438,0.328,0.746,0.568,0.928,0.744c0.187,0.155,0.447,0.396,0.797,0.743c0.337,0.31,0.595,0.591,0.758,0.847
			c0.164,0.236,0.369,0.527,0.607,0.864c0.239,0.356,0.404,0.688,0.509,1.008c0.094,0.308,0.188,0.661,0.267,1.036
			c0.09,0.375,0.132,0.759,0.132,1.168C241.267,63.787,241.005,64.837,240.471,65.732z"/>
		<polygon fill="#FFFFFF" points="256.615,31.383 256.615,24 252.917,24 252.917,31.383 245.535,31.383 245.535,35.081 
			252.917,35.081 252.917,42.466 256.615,42.466 256.615,35.081 264,35.081 264,31.383 		"/>
	</g>
	<g>
		<path fill="#FFFFFF" d="M416.731,57.531c-1.591,0-2.946,0.579-4.052,1.682c-1.128,1.125-1.677,2.466-1.677,4.054
			c0,1.59,0.546,2.947,1.677,4.055c1.105,1.125,2.466,1.673,4.052,1.673c1.595,0,2.932-0.548,4.053-1.673
			c1.107-1.107,1.662-2.467,1.662-4.055c0-1.591-0.555-2.932-1.662-4.054C419.663,58.109,418.327,57.531,416.731,57.531z"/>
		<path fill="#FFFFFF" d="M429.908,50.09c-2.241-2.275-4.825-4.076-7.737-5.417c-2.885-1.344-5.932-2.144-9.113-2.397h-0.146
			c-0.507,0-0.95,0.166-1.278,0.502c-0.415,0.363-0.632,0.825-0.632,1.397v4.039c0,0.499,0.172,0.917,0.496,1.281
			c0.322,0.358,0.734,0.551,1.231,0.595c4.555,0.425,8.438,2.277,11.672,5.504c3.226,3.234,5.061,7.118,5.507,11.674
			c0.041,0.498,0.233,0.908,0.593,1.23c0.363,0.328,0.78,0.497,1.282,0.497h4.038c0.565,0,1.046-0.218,1.388-0.628
			c0.396-0.408,0.545-0.871,0.526-1.427c-0.264-3.179-1.074-6.228-2.406-9.114C433.974,54.916,432.183,52.329,429.908,50.09z"/>
		<path fill="#FFFFFF" d="M449.416,52.045c-2.141-4.776-5.053-8.997-8.764-12.701c-3.717-3.715-7.926-6.639-12.698-8.759
			c-4.75-2.131-9.752-3.323-14.954-3.588h-0.09c-0.509,0-0.955,0.184-1.316,0.541c-0.406,0.362-0.594,0.82-0.594,1.37v4.266
			c0,0.496,0.175,0.932,0.51,1.296c0.354,0.367,0.772,0.566,1.272,0.588c4.28,0.253,8.338,1.275,12.196,3.048
			c3.838,1.763,7.178,4.064,10.026,6.903c2.828,2.83,5.118,6.176,6.896,10.016c1.774,3.856,2.775,7.913,3.008,12.198
			c0.033,0.498,0.218,0.914,0.586,1.271c0.362,0.331,0.813,0.507,1.324,0.507h4.275c0.545,0,1.005-0.186,1.363-0.589
			c0.408-0.407,0.562-0.865,0.541-1.409C452.74,61.794,451.55,56.796,449.416,52.045z"/>
	</g>
	<g>
		<path fill="#FFFFFF" d="M356.072,38.831c0.517-1.563,0.786-3.18,0.786-4.849c0-2.229-0.5-4.332-1.484-6.287
			c-2.059,0-3.864,0.364-5.446,1.125c-1.586,0.742-3.375,1.91-5.392,3.494c-2.537-0.622-5.231-0.93-8.083-0.93
			c-3.114,0-6.078,0.343-8.909,1.01c-2.06-1.616-3.871-2.8-5.445-3.563c-1.585-0.757-3.41-1.136-5.481-1.136
			c-0.982,1.957-1.475,4.058-1.475,6.287c0,1.69,0.26,3.328,0.775,4.902C313.298,41.948,312,45.75,312,50.306
			c0,3.988,0.594,7.176,1.786,9.552c0.637,1.26,1.456,2.35,2.481,3.319c1.014,0.954,2.184,1.74,3.492,2.344
			c1.309,0.583,2.626,1.081,3.943,1.471c1.337,0.407,2.805,0.691,4.403,0.872c1.612,0.186,3.026,0.3,4.261,0.35
			c1.225,0.07,2.588,0.091,4.088,0.091c1.775,0,3.375-0.045,4.834-0.135c1.428-0.094,3.068-0.293,4.935-0.627
			c1.862-0.336,3.481-0.795,4.909-1.366c1.41-0.587,2.77-1.405,4.054-2.48c1.307-1.078,2.325-2.369,3.05-3.841
			c1.169-2.388,1.764-5.569,1.764-9.554C359.999,45.731,358.692,41.906,356.072,38.831z M352.608,59.815
			c-0.609,1.259-1.384,2.249-2.343,2.963c-0.938,0.731-2.111,1.307-3.516,1.734c-1.408,0.445-2.74,0.729-4.036,0.844
			c-1.282,0.142-2.722,0.216-4.296,0.216h-4.848c-1.574,0-3.006-0.074-4.295-0.216c-1.289-0.116-2.642-0.401-4.042-0.844
			c-1.407-0.427-2.581-1.003-3.521-1.734c-0.941-0.715-1.714-1.704-2.329-2.963c-0.623-1.263-0.93-2.729-0.93-4.419
			c0-2.32,0.658-4.287,1.993-5.895c1.331-1.615,3.122-2.419,5.394-2.419c0.832,0,2.709,0.196,5.622,0.6
			c1.375,0.22,2.884,0.32,4.539,0.32c1.647,0,3.163-0.1,4.526-0.32c2.968-0.403,4.843-0.6,5.617-0.6c2.276,0,4.069,0.804,5.41,2.419
			c1.325,1.605,1.981,3.575,1.981,5.895C353.536,57.086,353.221,58.552,352.608,59.815z"/>
		<path fill="#FFFFFF" d="M328.856,50.824c-0.585-0.658-1.286-0.984-2.091-0.984c-0.814,0-1.5,0.326-2.085,0.984
			c-0.591,0.654-1.005,1.392-1.247,2.199c-0.248,0.802-0.365,1.592-0.365,2.373c0,0.759,0.117,1.55,0.365,2.355
			c0.242,0.805,0.656,1.541,1.247,2.195c0.585,0.652,1.271,0.979,2.085,0.979c0.805,0,1.502-0.327,2.091-0.979
			c0.59-0.654,1.004-1.391,1.239-2.195c0.241-0.806,0.357-1.597,0.357-2.355c0-0.782-0.116-1.57-0.357-2.373
			C329.86,52.216,329.446,51.476,328.856,50.824z"/>
		<path fill="#FFFFFF" d="M347.311,50.824c-0.577-0.658-1.271-0.984-2.072-0.984c-0.807,0-1.509,0.326-2.104,0.984
			c-0.578,0.654-0.994,1.392-1.229,2.199c-0.238,0.802-0.363,1.592-0.363,2.373c0,0.759,0.125,1.55,0.363,2.355
			c0.235,0.805,0.651,1.541,1.229,2.195c0.592,0.652,1.297,0.979,2.104,0.979c0.801,0,1.497-0.327,2.072-0.979
			c0.597-0.654,1.017-1.391,1.256-2.195c0.24-0.806,0.344-1.597,0.344-2.355c0-0.782-0.107-1.57-0.344-2.373
			C348.326,52.216,347.907,51.476,347.311,50.824z"/>
	</g>
</g>
</svg>
